<?xml version="1.0" standalone="no"?>
<!DOCTYPE svg PUBLIC "-//W3C//DTD SVG 20010904//EN"
 "http://www.w3.org/TR/2001/REC-SVG-20010904/DTD/svg10.dtd">
<svg version="1.0" xmlns="http://www.w3.org/2000/svg"
 width="1280.000000pt" height="640.000000pt" viewBox="0 0 1280.000000 640.000000"
 preserveAspectRatio="xMidYMid meet">
<metadata>
Created by potrace 1.16, written by Peter Selinger 2001-2019
</metadata>
<g transform="translate(0.000000,640.000000) scale(0.100000,-0.100000)"
fill="#000000" stroke="none">
<path d="M5405 5129 c-525 -33 -1110 -146 -1980 -385 -524 -144 -1130 -332
-1605 -499 l-236 -83 -69 14 c-95 18 -131 18 -139 -2 -3 -9 -6 -41 -6 -71 l0
-55 -87 8 c-49 4 -104 8 -123 8 l-35 1 0 -52 c1 -60 -4 -63 -95 -63 -30 0 -79
-3 -107 -6 l-53 -7 0 -47 0 -48 -236 -58 -236 -59 -34 -67 c-26 -52 -68 -103
-187 -225 -118 -123 -155 -167 -165 -199 -16 -55 -15 -156 3 -284 30 -206 36
-328 23 -414 -17 -112 -15 -164 10 -213 12 -23 86 -107 164 -186 l143 -145 90
-16 c146 -25 1135 -166 1168 -166 9 0 19 15 24 37 l9 38 131 3 131 3 41 -75
c150 -274 375 -453 666 -532 105 -28 418 -26 526 4 284 77 515 262 661 527
l44 80 74 -3 c45 -1 77 -7 82 -15 4 -6 8 -36 8 -64 l0 -53 953 0 c1250 0 3980
18 4001 26 12 5 16 20 16 70 l0 65 77 -3 78 -3 41 -77 c153 -286 396 -481 692
-555 50 -13 111 -17 242 -18 192 0 274 15 422 76 203 83 423 290 523 489 37
75 62 100 99 100 71 0 73 -3 78 -101 2 -48 6 -91 9 -93 7 -7 376 11 504 24
263 27 531 76 737 136 133 38 318 111 318 126 0 5 -23 42 -51 83 l-51 73 11
143 c6 79 16 218 21 307 l10 164 -43 50 c-55 67 -211 198 -315 265 -107 71
-320 172 -447 213 -128 42 -143 50 -243 127 -204 155 -400 244 -582 264 -52 6
-162 26 -245 44 -372 84 -940 167 -1635 239 l-225 23 -65 -38 c-138 -82 -283
-112 -504 -107 l-151 3 -65 55 c-162 137 -529 377 -1130 736 -113 67 -214 129
-225 137 -18 14 -16 18 49 85 l68 71 -83 25 c-221 66 -362 96 -589 127 -133
18 -223 22 -465 24 -165 2 -363 -1 -440 -6z m760 -313 c283 -36 461 -90 710
-215 94 -48 230 -124 303 -171 263 -168 866 -575 870 -587 3 -10 -14 -13 -63
-13 -75 0 -61 -10 -198 143 -74 83 -186 164 -272 196 -66 25 -163 28 -204 7
-67 -35 -131 -142 -155 -258 l-13 -63 -154 3 c-155 3 -617 18 -1469 47 -256 9
-474 20 -485 24 -16 7 -42 78 -132 367 -142 456 -138 443 -127 454 18 18 320
58 629 84 113 9 644 -4 760 -18z m-1651 -178 c9 -78 34 -405 42 -549 7 -123 6
-126 -14 -131 -62 -17 -1326 72 -1480 103 -52 11 -112 50 -112 74 0 17 67 76
124 110 128 75 470 203 792 295 271 78 555 149 600 150 l42 0 6 -52z m466
-726 c0 -5 -22 -36 -48 -68 -78 -98 -95 -148 -100 -291 -2 -69 1 -144 7 -174
28 -131 216 -540 324 -707 58 -90 197 -235 295 -309 90 -68 232 -143 332 -177
113 -37 231 -45 845 -56 308 -6 773 -15 1034 -20 260 -6 549 -10 642 -10 166
0 170 0 179 23 11 25 38 304 71 712 26 327 23 495 -11 600 -42 133 -110 244
-213 352 -23 24 -38 45 -35 49 12 12 110 -91 164 -172 109 -164 144 -281 144
-481 0 -144 -54 -917 -76 -1082 l-6 -44 -411 6 c-832 14 -1857 37 -2037 47
-220 12 -282 25 -417 90 -143 68 -241 138 -363 260 -127 126 -204 238 -310
450 -140 282 -188 433 -197 626 l-6 121 49 92 c47 91 110 171 132 171 7 0 12
-4 12 -8z m6170 -243 c223 -61 473 -207 699 -408 75 -67 151 -154 151 -173 0
-32 -193 20 -355 96 -217 102 -495 312 -592 448 -47 66 -30 72 97 37z m-10141
-149 c492 -58 505 -60 494 -71 -13 -12 -131 -69 -192 -92 -53 -20 -80 -21
-441 -25 -212 -2 -427 -1 -479 3 l-93 7 5 33 c3 18 22 72 43 120 l38 88 100
-6 c56 -4 292 -29 525 -57z m2086 -395 c306 -90 500 -286 591 -600 36 -123 44
-293 19 -396 -37 -156 -126 -308 -252 -431 -187 -182 -396 -257 -640 -230
-405 45 -700 322 -764 716 -68 426 213 848 636 956 113 28 283 22 410 -15z
m7211 15 c157 -40 301 -125 426 -251 63 -64 85 -95 127 -181 67 -137 91 -228
98 -364 12 -245 -71 -449 -262 -639 -90 -90 -180 -143 -325 -191 -79 -26 -97
-28 -255 -28 -188 -1 -228 7 -361 70 -154 73 -297 222 -385 399 -63 129 -80
194 -86 335 -4 94 -1 131 16 203 62 259 220 452 476 579 166 83 369 109 531
68z m2273 -390 c81 -41 102 -108 57 -175 -14 -20 -27 -49 -31 -65 l-7 -30 -86
0 c-48 0 -104 -3 -124 -6 -37 -6 -38 -6 -38 23 l0 30 -147 7 c-81 4 -149 9
-151 11 -2 2 6 25 19 50 30 59 96 120 165 152 97 44 260 46 343 3z m-1 -370
c-8 -76 -14 -80 -134 -80 l-104 0 0 38 c0 53 9 80 29 85 9 3 60 5 115 6 l99 1
-5 -50z m-59 -130 c33 0 33 0 27 -37 -22 -122 -31 -130 -101 -90 -36 21 -84
85 -85 114 0 12 68 23 105 17 11 -2 35 -4 54 -4z"/>
<path d="M2700 3090 c-56 -10 -172 -53 -225 -85 -174 -102 -292 -248 -361
-450 -26 -75 -28 -91 -28 -245 0 -126 4 -180 18 -230 41 -152 143 -308 258
-396 76 -57 198 -115 293 -140 96 -25 301 -25 410 0 250 56 447 236 558 511
32 79 32 81 32 250 0 159 -2 175 -28 248 -59 168 -119 258 -245 369 -72 63
-212 131 -322 158 -89 21 -267 26 -360 10z"/>
<path d="M9921 3079 c-165 -43 -323 -142 -417 -262 -202 -258 -238 -602 -93
-887 61 -121 212 -264 344 -326 135 -64 197 -77 360 -78 120 0 151 3 215 23
376 116 580 370 580 718 0 100 -20 227 -51 323 -38 119 -87 199 -179 291 -72
73 -100 94 -180 132 -131 64 -235 87 -385 86 -85 0 -141 -6 -194 -20z"/>
<path d="M6965 4888 c-19 -29 -35 -60 -35 -68 0 -10 74 -61 188 -130 232 -142
478 -298 869 -553 166 -109 319 -205 340 -213 88 -37 426 1 567 65 l59 26 -74
34 c-41 19 -346 167 -679 329 -953 464 -1159 562 -1185 562 -8 0 -30 -24 -50
-52z"/>
</g>
</svg>
