<?xml version="1.0" standalone="no"?>
<!DOCTYPE svg PUBLIC "-//W3C//DTD SVG 20010904//EN"
 "http://www.w3.org/TR/2001/REC-SVG-20010904/DTD/svg10.dtd">
<svg version="1.0" xmlns="http://www.w3.org/2000/svg"
 width="64.000000pt" height="64.000000pt" viewBox="0 0 64.000000 64.000000"
 preserveAspectRatio="xMidYMid meet">

<g transform="translate(0.000000,64.000000) scale(0.100000,-0.100000)"
fill="#000000" stroke="none">
<path d="M77 634 c-4 -4 -7 -148 -7 -321 0 -307 0 -313 20 -313 20 0 20 5 18
317 -3 301 -7 341 -31 317z"/>
<path d="M330 595 c-36 -8 -98 -14 -137 -14 l-73 -1 0 -55 c0 -54 0 -55 30
-55 29 0 30 -1 30 -50 l0 -49 -30 6 -30 6 0 -56 0 -56 38 -7 c23 -5 88 1 175
15 126 21 177 22 223 4 12 -4 14 20 14 155 0 157 0 160 -22 166 -37 10 -149 5
-218 -9z m140 -40 c0 -43 -1 -45 -29 -45 -16 0 -36 -3 -45 -6 -13 -5 -16 2
-16 38 0 25 3 48 7 51 3 4 24 7 45 7 l38 0 0 -45z m-190 -30 l0 -45 -40 0 -40
0 0 45 0 45 40 0 40 0 0 -45z m258 -31 c18 -5 22 -13 22 -50 0 -47 -1 -47 -49
-38 -29 6 -31 9 -31 50 0 47 7 51 58 38z m-168 -49 c0 -41 -2 -45 -27 -51 -16
-3 -34 -7 -40 -10 -9 -2 -13 11 -13 46 0 52 -2 50 68 59 8 1 12 -14 12 -44z
m100 -90 c0 -32 -4 -45 -14 -45 -7 0 -28 -3 -45 -6 l-31 -6 0 45 c0 48 6 53
63 56 26 1 27 -1 27 -44z m-190 -29 c0 -45 -12 -55 -62 -56 -26 0 -26 86 0 93
53 14 62 9 62 -37z"/>
</g>
</svg>
