<?xml version="1.0" standalone="no"?>
<!DOCTYPE svg PUBLIC "-//W3C//DTD SVG 20010904//EN"
 "http://www.w3.org/TR/2001/REC-SVG-20010904/DTD/svg10.dtd">
<svg version="1.0" xmlns="http://www.w3.org/2000/svg"
 width="1280.000000pt" height="640.000000pt" viewBox="0 0 1280.000000 640.000000"
 preserveAspectRatio="xMidYMid meet">
<metadata>
Created by potrace 1.16, written by Peter Selinger 2001-2019
</metadata>
<g transform="translate(0.000000,640.000000) scale(0.100000,-0.100000)"
fill="#000000" stroke="none">
<path d="M6647 5082 c-21 -23 -47 -96 -47 -131 0 -40 24 -67 103 -112 117 -67
241 -145 432 -269 99 -65 201 -128 227 -141 26 -12 45 -26 43 -29 -3 -4 -47
-5 -99 -2 -128 6 -142 2 -157 -51 -19 -64 -16 -236 4 -277 10 -18 15 -35 12
-38 -2 -3 -452 -6 -998 -7 l-993 -3 4 88 c2 48 -3 143 -11 211 -9 68 -21 164
-27 213 -13 102 -27 135 -72 170 -69 51 -160 54 -227 6 -67 -47 -78 -98 -92
-425 -5 -143 -12 -261 -14 -263 -12 -12 -119 -11 -225 3 -617 78 -833 131
-1131 280 -185 93 -247 108 -434 107 -144 -2 -401 -23 -515 -43 -30 -5 -115
-16 -187 -24 -133 -15 -385 -65 -421 -84 -10 -5 -82 -26 -159 -45 -179 -45
-366 -102 -418 -126 -22 -11 -92 -39 -155 -63 -152 -58 -316 -142 -421 -213
-227 -155 -435 -344 -554 -503 -114 -151 -110 -137 -110 -426 0 -378 26 -649
70 -737 43 -85 99 -116 245 -138 41 -6 136 -22 210 -35 195 -36 457 -73 595
-85 515 -44 620 -48 628 -26 3 8 6 110 6 228 1 117 3 233 6 258 28 274 34 297
105 440 95 189 239 358 389 457 47 31 98 64 112 74 145 97 483 149 698 107
159 -32 340 -118 492 -234 165 -126 332 -403 394 -653 15 -58 30 -251 41 -511
4 -91 11 -168 16 -171 5 -3 266 -7 581 -8 315 -2 741 -5 947 -7 206 -3 623 -7
925 -9 681 -6 1223 -14 1505 -21 439 -11 962 -8 1005 7 l40 14 1 145 c1 80 2
181 3 225 l2 80 19 -85 c20 -95 88 -257 145 -346 114 -179 309 -334 526 -420
167 -65 593 -68 706 -4 10 5 45 20 79 33 319 126 559 413 628 751 l13 61 7
-70 c27 -271 27 -282 1 -364 -35 -109 -37 -105 43 -98 76 6 338 62 364 77 9 5
102 30 205 55 175 42 269 62 498 102 274 47 432 133 516 278 l29 50 0 282 c0
332 -5 358 -89 436 -79 74 -113 93 -636 355 -86 43 -195 114 -330 215 -221
165 -436 268 -630 300 -89 15 -292 29 -680 47 -110 5 -279 19 -375 30 -96 11
-198 20 -226 20 -28 0 -167 13 -308 30 -142 16 -261 28 -265 26 -13 -8 -468
64 -531 84 -54 17 -404 194 -567 286 -23 13 -46 24 -52 24 -6 0 -137 72 -290
160 -154 88 -281 160 -284 160 -3 0 -60 32 -128 71 -299 173 -438 228 -646
259 -94 13 -97 13 -116 -8z m883 -738 c0 7 211 -116 375 -218 l130 -81 -45 -2
c-25 -2 -104 -4 -177 -5 -112 -3 -128 -1 -108 10 33 17 41 56 24 106 -14 40
-45 66 -211 177 -54 36 -62 47 -18 24 17 -9 30 -13 30 -11z m2678 -1070 c111
-23 247 -77 322 -128 199 -136 362 -392 391 -615 16 -118 2 -230 -46 -371 -63
-182 -187 -327 -377 -441 -173 -104 -347 -138 -553 -108 -38 5 -85 12 -104 14
-55 7 -211 89 -283 149 -124 103 -246 276 -288 411 -28 89 -38 264 -21 370 7
41 14 89 16 105 6 45 78 193 129 263 94 132 241 249 396 315 123 52 275 66
418 36z"/>
<path d="M9909 3230 c-25 -4 -54 -13 -65 -18 -10 -6 -48 -21 -83 -33 -174 -61
-337 -222 -418 -415 -58 -134 -71 -460 -24 -589 104 -291 319 -494 573 -542
120 -22 349 -14 438 17 119 41 286 151 358 238 92 110 158 257 182 405 19 118
9 309 -19 372 -5 11 -17 43 -26 70 -52 148 -179 312 -300 384 -66 40 -191 86
-288 107 -72 15 -250 17 -328 4z m266 -167 c-2 -16 -9 -77 -16 -138 -19 -188
-36 -235 -84 -235 -12 0 -32 12 -46 26 -23 25 -24 31 -27 200 l-4 174 91 0 91
0 -5 -27z m-235 -42 c0 -115 -61 -249 -122 -270 -63 -22 -175 -5 -257 39 -20
10 -20 13 -6 33 72 104 285 252 368 256 14 1 17 -8 17 -58z m416 4 c125 -65
144 -79 207 -152 l48 -56 -55 -23 c-61 -25 -142 -44 -186 -44 -39 0 -93 49
-115 102 -26 67 -33 228 -10 228 3 0 53 -25 111 -55z m329 -355 c13 -25 26
-55 30 -67 7 -27 6 -27 -160 -79 -60 -19 -118 -38 -127 -44 -47 -27 -128 8
-128 54 0 27 40 66 100 97 56 28 230 88 249 86 7 -1 24 -22 36 -47z m-1018
-21 c115 -39 158 -58 173 -77 26 -32 25 -44 -6 -81 -18 -22 -35 -31 -56 -31
-30 0 -338 97 -338 106 0 3 5 26 11 52 12 47 34 82 52 82 5 0 79 -23 164 -51z
m1039 -357 c-16 -62 -101 -248 -119 -259 -14 -9 -51 39 -93 119 -25 51 -34 80
-34 118 0 96 45 150 182 215 l73 35 3 -86 c2 -52 -3 -108 -12 -142z m-1182
174 c78 -36 148 -92 172 -137 31 -61 4 -178 -68 -296 l-20 -33 -39 53 c-83
109 -129 242 -129 375 0 39 3 72 6 72 3 0 38 -15 78 -34z m426 -218 c46 -50
13 -125 -156 -353 l-22 -29 -56 39 c-31 21 -56 40 -56 42 0 3 13 23 28 46 16
23 50 82 77 130 65 120 88 147 130 147 22 0 41 -8 55 -22z m359 -10 c79 -89
191 -224 203 -246 11 -22 10 -26 -12 -44 -14 -10 -38 -30 -54 -44 -15 -13 -29
-24 -31 -24 -4 0 -159 201 -187 243 -67 100 4 200 81 115z m-149 -249 c46 -20
160 -131 160 -155 0 -21 -64 -29 -220 -29 -152 1 -256 8 -266 18 -12 12 119
137 169 162 61 30 97 31 157 4z"/>
<path d="M2835 3380 c-196 -11 -349 -47 -434 -103 -20 -13 -56 -36 -81 -50
-163 -91 -367 -340 -431 -523 -54 -158 -80 -399 -59 -549 13 -91 64 -244 115
-345 197 -390 651 -617 1092 -545 280 45 474 152 667 366 167 185 249 417 247
704 0 143 -9 195 -57 329 -85 238 -197 390 -379 513 -181 121 -349 188 -525
207 -14 2 -83 0 -155 -4z m290 -255 c159 -53 351 -198 446 -338 61 -88 127
-234 145 -317 30 -143 2 -384 -59 -505 -11 -22 -47 -80 -80 -128 -66 -98 -148
-173 -258 -238 -78 -47 -247 -109 -296 -109 -17 0 -35 -5 -39 -11 -10 -16
-230 -5 -309 15 -33 9 -115 43 -183 77 -101 50 -136 74 -192 129 -114 112
-208 277 -236 412 -36 174 -8 422 66 568 49 98 108 176 202 266 67 64 105 92
179 128 118 58 188 75 337 84 120 8 173 1 277 -33z"/>
<path d="M2835 3109 c-151 -7 -227 -25 -341 -81 -131 -64 -290 -219 -354 -347
-69 -138 -100 -401 -66 -561 19 -87 113 -270 178 -346 73 -84 109 -113 213
-173 153 -87 236 -111 397 -111 322 0 596 169 742 459 48 93 67 183 73 336 6
155 -6 231 -52 331 -14 30 -25 58 -25 63 0 17 -103 154 -155 205 -96 96 -229
174 -355 209 -81 22 -102 24 -255 16z m63 -146 l54 -6 -4 -177 c-3 -158 -5
-180 -22 -199 -24 -26 -54 -26 -85 0 -27 22 -28 30 -34 252 -5 156 -14 143 91
130z m266 -67 c56 -33 124 -85 172 -131 l79 -77 -41 -19 c-23 -10 -74 -24
-113 -31 -156 -27 -221 44 -221 241 0 97 -10 96 124 17z m-450 38 c10 -27 6
-116 -8 -178 -10 -43 -23 -68 -50 -95 -36 -36 -37 -36 -119 -36 -80 0 -177 16
-206 35 -12 7 -5 20 34 66 65 76 143 136 239 184 87 44 101 47 110 24z m766
-348 c0 -2 11 -33 25 -69 l24 -66 -153 -51 c-85 -27 -170 -50 -188 -50 -76 0
-103 62 -50 113 42 40 342 148 342 123z m-1088 -31 c92 -18 249 -90 267 -123
13 -24 -6 -62 -41 -81 -24 -14 -34 -13 -100 3 -40 10 -91 22 -113 26 -22 5
-66 18 -98 30 -50 19 -57 25 -57 48 0 15 9 47 20 71 22 48 16 46 122 26z
m1140 -231 c-7 -134 -56 -294 -121 -392 l-28 -43 -52 80 c-112 172 -108 251
15 337 53 37 162 86 179 80 6 -2 9 -29 7 -62z m-1162 -7 c38 -19 76 -47 95
-70 27 -35 30 -46 30 -110 -1 -84 -14 -132 -56 -205 -36 -64 -38 -63 -112 46
-58 85 -77 155 -77 289 l0 102 28 -10 c15 -5 56 -24 92 -42z m777 -244 c68
-76 183 -224 183 -236 0 -3 -30 -23 -68 -44 l-67 -39 -33 55 c-18 31 -62 97
-97 146 -48 67 -65 98 -65 123 0 49 16 72 49 72 22 0 42 -16 98 -77z m-402 47
c13 -14 16 -28 11 -54 -9 -49 -66 -158 -128 -248 l-54 -77 -72 46 -72 45 31
41 c17 23 55 76 84 117 82 114 118 150 152 150 17 0 38 -9 48 -20z m204 -246
c46 -10 196 -152 179 -170 -9 -9 -144 -26 -241 -31 -88 -4 -233 9 -246 23 -10
9 16 39 85 98 98 83 137 97 223 80z"/>
</g>
</svg>
